<svg xmlns="http://www.w3.org/2000/svg" xmlns:xlink="http://www.w3.org/1999/xlink" style="vertical-align:-.88ex" width="37.052ex" height="2.759ex" viewBox="0 -809.3 15952.8 1188"><defs><path id="a" stroke-width="1" d="M50 252q0 115 67 221t169 168 204 63q90 0 143-51 9-10 15-17t8-10l1-3q3 0 27 26 7 6 15 14t16 16 10 11l15 15h6q14 0 14-7 0-4-32-137-36-139-36-140-2-5-5-6t-18-2h-16q-6 6-6 9 0 1 1 7t2 20 1 32q0 71-32 124t-109 54q-26 0-56-7t-72-24-83-56-73-93q-32-57-51-133t-19-124q0-114 76-164 48-34 118-34 91 0 162 68t94 148q4 13 6 15t16 2q20 0 20-9 0-5-1-9-29-107-124-184T319-22q-113 0-191 75T50 252z"/><path id="b" stroke-width="1" d="M94 250q0 69 10 131t23 107 37 88 38 67 42 52 33 34 25 21h17q14 0 14-9 0-3-17-21t-41-53-49-86-42-138-17-193 17-192 41-139 49-86 42-53 17-21q0-9-15-9h-16l-28 24q-94 85-137 212T94 250z"/><path id="c" stroke-width="1" d="M21 287q1 6 3 16t12 38 20 47 33 37 46 17q36 0 60-18t30-34 6-21q0-2 1-2l11 11q61 64 139 64 54 0 87-27t34-79-38-157-38-127q0-26 17-26 6 0 9 1 29 5 52 38t35 80q2 8 20 8 20 0 20-8 0-1-4-15-8-29-22-57t-46-56-69-27q-47 0-68 27t-21 56q0 19 36 120t37 152q0 59-44 59h-5q-86 0-145-101l-7-12-33-134Q156 26 151 16q-13-27-43-27-13 0-21 6T76 7t-2 10q0 13 38 163t40 163q1 5 1 23 0 39-24 39-38 0-63-100-6-20-6-21-2-6-19-6H27q-6 6-6 9z"/><path id="d" stroke-width="1" d="M78 35v25l16 43 43 18q28 0 50-25t23-88q0-35-9-68t-21-57-26-41-24-27-13-9q-4 0-13 9t-9 13q0 4 11 16t25 30 26 50 16 73V9l-1-1q-2-1-5-2t-6-3-9-2-12-1q-27 0-44 17z"/><path id="e" stroke-width="1" d="M21 287q1 6 3 16t12 38 20 47 32 37 44 17 43-7 30-18 16-22 8-19l2-7q0-2 1-2l11 11q60 64 141 64 17 0 31-2t26-7 19-10 15-12 10-13 8-13 4-12 3-9 2-7l8 10q63 75 149 75 54 0 87-27t34-79q0-51-38-158T704 50q1-14 5-19t15-5q28 0 52 30t39 82q3 11 6 13t16 2q20 0 20-8 0-1-4-15-8-29-22-57t-46-56-69-27q-47 0-68 27t-21 56q0 19 36 120t37 152q0 59-44 59h-5q-86 0-145-101l-7-12-33-134Q433 26 428 16q-13-27-43-27-13 0-21 7T353 8t-3 10q0 11 34 143l36 146q3 15 3 38 0 59-44 59h-5q-86 0-145-101l-7-12-33-134Q156 26 151 16q-13-27-43-27-13 0-21 6T76 7t-2 10q0 13 38 164 39 154 39 161 3 15 3 27 0 36-25 36-22 0-37-28t-23-61-12-36q-2-2-16-2H27q-6 6-6 9z"/><path id="f" stroke-width="1" d="M60 749l4 1h22l28-24q94-85 137-212t43-264q0-68-10-131T261 12t-37-88-38-67-41-51-32-33-23-19l-4-4H63q-3 0-5 3t-3 9q1 1 11 13Q221-64 221 250T66 725q-10 12-11 13 0 8 5 11z"/><path id="g" stroke-width="1" d="M56 347q0 13 14 20h637q15-8 15-20 0-11-14-19l-318-1H72q-16 5-16 20zm0-194q0 15 16 20h636q14-10 14-20 0-13-15-20H70q-14 7-14 20z"/><path id="h" stroke-width="1" d="M84 237v13l14 20h581q15-8 15-20t-15-20H98q-14 7-14 20z"/><path id="i" stroke-width="1" d="M83 616q0 8 6 14t10 6q8 0 154-68t290-137 144-70q7-5 7-15t-7-15q-2-2-292-139L107 56h-6q-18 2-18 20v3q-1 7 15 16 19 10 150 72 78 37 130 61l248 118-266 126q-69 33-160 76-88 41-102 49t-15 19zm591-444q18 0 20-18 0-12-7-17-2-2-292-139L107-138h-6q-18 2-18 20 0 12 13 18 4 2 284 135t285 135 9 2z"/></defs><g fill="currentColor" stroke="currentColor" stroke-width="0" transform="scale(1 -1)"><use xlink:href="#a"/><use x="760" xlink:href="#b"/><use x="1150" xlink:href="#c"/><use x="1750" xlink:href="#d"/><use x="2195" xlink:href="#e"/><use x="3074" xlink:href="#f"/><use x="3741" xlink:href="#g"/><use x="4797" xlink:href="#a"/><use x="5558" xlink:href="#b"/><use x="5947" xlink:href="#c"/><use x="6548" xlink:href="#d"/><use x="6993" xlink:href="#c"/><use x="7816" xlink:href="#h"/><use x="8816" xlink:href="#e"/><text stroke="none" font-family="&quot;Source Han Serif CN&quot;, Georgia, &quot;Nimbus Roman No9 L&quot;, &quot;Songti SC&quot;, &quot;Noto Serif CJK SC&quot;, &quot;Source Han Serif SC&quot;, &quot;Source Han Serif CN&quot;, STSong, &quot;AR PL New Sung&quot;, &quot;AR PL SungtiL GB&quot;, NSimSun, SimSun, &quot;TW\-Sung&quot;, &quot;WenQuanYi Bitmap Song&quot;, &quot;AR PL UMing CN&quot;, &quot;AR PL UMing HK&quot;, &quot;AR PL UMing TW&quot;, &quot;AR PL UMing TW MBE&quot;, PMingLiU, MingLiU, serif, STIXGeneral, &quot;Arial Unicode MS&quot;" transform="matrix(53.81925 0 0 -53.81925 9695 100)">）</text><text stroke="none" font-family="&quot;Source Han Serif CN&quot;, Georgia, &quot;Nimbus Roman No9 L&quot;, &quot;Songti SC&quot;, &quot;Noto Serif CJK SC&quot;, &quot;Source Han Serif SC&quot;, &quot;Source Han Serif CN&quot;, STSong, &quot;AR PL New Sung&quot;, &quot;AR PL SungtiL GB&quot;, NSimSun, SimSun, &quot;TW\-Sung&quot;, &quot;WenQuanYi Bitmap Song&quot;, &quot;AR PL UMing CN&quot;, &quot;AR PL UMing HK&quot;, &quot;AR PL UMing TW&quot;, &quot;AR PL UMing TW MBE&quot;, PMingLiU, MingLiU, serif, STIXGeneral, &quot;Arial Unicode MS&quot;" transform="matrix(53.81925 0 0 -53.81925 10556 100)">，</text><text stroke="none" font-family="&quot;Source Han Serif CN&quot;, Georgia, &quot;Nimbus Roman No9 L&quot;, &quot;Songti SC&quot;, &quot;Noto Serif CJK SC&quot;, &quot;Source Han Serif SC&quot;, &quot;Source Han Serif CN&quot;, STSong, &quot;AR PL New Sung&quot;, &quot;AR PL SungtiL GB&quot;, NSimSun, SimSun, &quot;TW\-Sung&quot;, &quot;WenQuanYi Bitmap Song&quot;, &quot;AR PL UMing CN&quot;, &quot;AR PL UMing HK&quot;, &quot;AR PL UMing TW&quot;, &quot;AR PL UMing TW MBE&quot;, PMingLiU, MingLiU, serif, STIXGeneral, &quot;Arial Unicode MS&quot;" transform="matrix(53.81925 0 0 -53.81925 11417 100)">其</text><text stroke="none" font-family="&quot;Source Han Serif CN&quot;, Georgia, &quot;Nimbus Roman No9 L&quot;, &quot;Songti SC&quot;, &quot;Noto Serif CJK SC&quot;, &quot;Source Han Serif SC&quot;, &quot;Source Han Serif CN&quot;, STSong, &quot;AR PL New Sung&quot;, &quot;AR PL SungtiL GB&quot;, NSimSun, SimSun, &quot;TW\-Sung&quot;, &quot;WenQuanYi Bitmap Song&quot;, &quot;AR PL UMing CN&quot;, &quot;AR PL UMing HK&quot;, &quot;AR PL UMing TW&quot;, &quot;AR PL UMing TW MBE&quot;, PMingLiU, MingLiU, serif, STIXGeneral, &quot;Arial Unicode MS&quot;" transform="matrix(53.81925 0 0 -53.81925 12278 100)">中</text><use x="13139" xlink:href="#c"/><use x="14018" xlink:href="#i"/><use x="15074" xlink:href="#e"/></g></svg>